<?xml version="1.0" standalone="no"?>
<!DOCTYPE svg PUBLIC "-//W3C//DTD SVG 20010904//EN"
 "http://www.w3.org/TR/2001/REC-SVG-20010904/DTD/svg10.dtd">
<svg version="1.0" xmlns="http://www.w3.org/2000/svg"
 width="142.000000pt" height="142.000000pt" viewBox="0 0 142.000000 142.000000"
 preserveAspectRatio="xMidYMid meet">
<metadata>
Created by potrace 1.14, written by Peter Selinger 2001-2017
</metadata>
<g transform="translate(0.000000,142.000000) scale(0.100000,-0.100000)"
fill="#000000" stroke="none">
<path d="M124 1339 c-11 -6 -28 -23 -37 -39 -15 -25 -17 -83 -17 -590 0 -406
3 -567 12 -583 29 -55 -4 -52 612 -55 388 -2 579 1 596 8 15 6 34 24 43 39 15
26 17 81 17 591 0 609 1 603 -55 628 -34 16 -1139 16 -1171 1z"/>
</g>
</svg>
